<svg viewBox="0 0 41 41" xmlns="http://www.w3.org/2000/svg" data-logo="logo">
            <g transform="translate(0, 0) rotate(0)" id="logogram" style="opacity: 1;"><path fill="#212529" d="M20.1666 0.782715C31.2119 0.782715 40.1669 9.73703 40.1669 20.7827C40.1669 31.8284 31.2119 40.7827 20.1666 40.7827C9.12093 40.7827 0.166626 31.8284 0.166626 20.7827C0.166626 9.73703 9.12093 0.782715 20.1666 0.782715ZM19.4437 2.2793C17.162 2.6004 14.9894 4.43379 13.3029 7.50011C12.8137 8.38954 12.3723 9.37218 11.9877 10.4332C14.2809 9.85689 16.8 9.51714 19.4437 9.46459V2.2793ZM10.2973 10.9135C10.7757 9.4123 11.3608 8.03111 12.0361 6.80336C12.8721 5.2833 13.8643 3.97066 14.9822 2.96248C8.90332 4.72794 4.11183 9.5195 2.34633 15.5984C3.35453 14.4805 4.66713 13.4883 6.18723 12.6523C7.41503 11.977 8.79613 11.3918 10.2973 10.9135ZM9.81702 12.6038C9.24072 14.897 8.90103 17.4161 8.84843 20.0598H1.66312C1.98422 17.7781 3.81763 15.6055 6.88403 13.9191C7.77343 13.4299 8.75602 12.9885 9.81702 12.6038ZM10.2945 20.0598C10.3542 17.1747 10.7696 14.4661 11.4568 12.0729C13.85 11.3857 16.5586 10.9703 19.4437 10.9106V14.0335C18.3674 16.7889 16.1722 18.9839 13.4167 20.0598H10.2945ZM8.84843 21.5056H1.66312C1.98422 23.7873 3.81763 25.9598 6.88403 27.6463C7.77343 28.1355 8.75602 28.5769 9.81702 28.9616C9.24072 26.6684 8.90103 24.1493 8.84843 21.5056ZM11.4568 29.4925C10.7696 27.0993 10.3542 24.3907 10.2945 21.5056H13.4167C16.1722 22.5815 18.3674 24.7765 19.4437 27.5319V30.6548C16.5586 30.5951 13.85 30.1797 11.4568 29.4925ZM10.2973 30.6519C8.79613 30.1736 7.41503 29.5884 6.18723 28.9131C4.66713 28.0771 3.35453 27.0849 2.34633 25.967C4.11183 32.0459 8.90332 36.8375 14.9822 38.6029C13.8643 37.5947 12.8721 36.2821 12.0361 34.762C11.3608 33.5343 10.7757 32.1531 10.2973 30.6519ZM19.4437 39.2861C17.162 38.965 14.9894 37.1316 13.3029 34.0653C12.8137 33.1759 12.3723 32.1932 11.9877 31.1323C14.2809 31.7085 16.8 32.0483 19.4437 32.1008V39.2861ZM25.3509 38.6029C26.4688 37.5947 27.4609 36.2821 28.2969 34.762C28.9719 33.5343 29.5579 32.1531 30.0359 30.6519C31.5369 30.1736 32.9179 29.5884 34.1459 28.9131C35.6659 28.0771 36.9789 27.0849 37.9869 25.967C36.2209 32.0459 31.4299 36.8375 25.3509 38.6029ZM28.3459 31.1323C27.9609 32.1932 27.5189 33.1759 27.0299 34.0653C25.3437 37.1316 23.1711 38.965 20.8894 39.2861V32.1008C23.5331 32.0483 26.0522 31.7085 28.3459 31.1323ZM30.5159 28.9616C31.5769 28.5769 32.5599 28.1355 33.4489 27.6463C36.5159 25.9599 38.3489 23.7873 38.6699 21.5056H31.4849C31.4319 24.1493 31.0919 26.6684 30.5159 28.9616ZM30.0389 21.5056C29.9789 24.3907 29.5639 27.0993 28.8759 29.4925C26.4831 30.1797 23.7745 30.5951 20.8894 30.6548V27.5342C21.9654 24.7778 24.1611 22.5818 26.9173 21.5056H30.0389ZM31.4849 20.0598H38.6699C38.3489 17.7781 36.5159 15.6055 33.4489 13.9191C32.5599 13.4299 31.5769 12.9885 30.5159 12.6038C31.0919 14.897 31.4319 17.4161 31.4849 20.0598ZM28.8759 12.0729C29.5639 14.4661 29.9789 17.1747 30.0389 20.0598H26.9174C24.1611 18.9836 21.9654 16.7876 20.8894 14.0312V10.9106C23.7745 10.9703 26.4831 11.3857 28.8759 12.0729ZM30.0359 10.9135C31.5369 11.3918 32.9179 11.977 34.1459 12.6523C35.6659 13.4883 36.9789 14.4805 37.9869 15.5984C36.2209 9.5195 31.4299 4.72794 25.3509 2.96248C26.4688 3.97066 27.4609 5.2833 28.2969 6.80336C28.9719 8.03111 29.5579 9.4123 30.0359 10.9135ZM20.8894 2.2793C23.1711 2.6004 25.3437 4.43379 27.0299 7.50011C27.5189 8.38955 27.9609 9.37218 28.3459 10.4332C26.0522 9.85689 23.5331 9.51714 20.8894 9.46459V2.2793Z" clip-rule="evenodd" fill-rule="evenodd"></path></g>
            <g transform="translate(41, 20.5)" id="logotype" style="opacity: 1;"></g>
            
          </svg>